<?xml version="1.0" standalone="no"?>
<!DOCTYPE svg PUBLIC "-//W3C//DTD SVG 20010904//EN"
 "http://www.w3.org/TR/2001/REC-SVG-20010904/DTD/svg10.dtd">
<svg version="1.0" xmlns="http://www.w3.org/2000/svg"
 width="700.000000pt" height="700.000000pt" viewBox="0 0 700.000000 700.000000"
 preserveAspectRatio="xMidYMid meet">
<metadata>
Created by potrace 1.14, written by Peter Selinger 2001-2017
</metadata>
<g transform="translate(0.000000,700.000000) scale(0.100000,-0.100000)"
fill="#000000" stroke="none">
<path d="M810 4549 l0 -1271 573 5 c616 5 654 8 842 62 380 110 666 402 766
783 l22 82 112 0 c108 0 113 1 119 23 3 12 6 32 6 44 0 44 42 132 81 173 63
65 116 84 234 84 90 1 106 -2 157 -27 72 -35 133 -104 153 -170 31 -106 12
-233 -49 -323 -53 -80 -184 -196 -673 -601 l-503 -416 0 -249 0 -248 910 0
910 0 0 -655 0 -655 340 0 340 0 0 495 0 495 495 0 495 0 0 280 0 280 -495 0
-495 0 0 215 0 215 550 0 550 0 -2 278 -3 277 -887 3 -888 2 0 -340 0 -340
-442 0 -443 1 40 37 c22 20 124 107 225 192 206 172 451 412 520 508 152 210
203 378 180 585 -42 369 -325 616 -777 677 -60 8 -151 11 -260 7 -185 -6 -294
-27 -434 -86 -40 -17 -74 -29 -75 -28 -2 2 -20 50 -39 107 -132 379 -423 635
-825 726 -155 35 -330 44 -857 44 l-473 0 0 -1271z m1165 657 c189 -53 291
-160 347 -365 19 -66 22 -103 22 -291 0 -189 -3 -224 -22 -292 -46 -168 -117
-265 -235 -322 -106 -52 -195 -66 -407 -66 l-180 0 0 681 0 681 208 -5 c151
-3 223 -9 267 -21z"/>
</g>
</svg>
