<svg width="20" height="22" viewBox="0 0 20 22" fill="none" xmlns="http://www.w3.org/2000/svg">
<path d="M19.3185 11.0294C19.0563 10.7672 18.6302 10.7672 18.368 11.0294L10.0099 19.4039L1.63547 11.0294C1.37325 10.7672 0.947155 10.7672 0.684941 11.0294C0.422728 11.2916 0.422728 11.7177 0.684941 11.9799L9.51826 20.8133C9.64937 20.9444 9.81325 21.0099 9.99353 21.0099C10.1574 21.0099 10.3377 20.9444 10.4688 20.8133L19.3021 11.9799C19.5807 11.7177 19.5807 11.2916 19.3185 11.0294Z" fill="#726FFE"/>
<path d="M19.3185 0.863164C19.0563 0.600951 18.6302 0.600951 18.368 0.863164L10.0099 9.23761L1.63547 0.863164C1.37325 0.600951 0.947155 0.600951 0.684941 0.863164C0.422728 1.12538 0.422728 1.55148 0.684941 1.81369L9.51826 10.647C9.64937 10.7781 9.81325 10.8437 9.99353 10.8437C10.1574 10.8437 10.3377 10.7781 10.4688 10.647L19.3021 1.81369C19.5807 1.55148 19.5807 1.12538 19.3185 0.863164Z" fill="#726FFE"/>
</svg>
