<svg width="50" height="36" viewBox="0 0 50 36" fill="none" xmlns="http://www.w3.org/2000/svg">
<path d="M40.788 5.63428C39.5896 5.63428 38.6186 6.60527 38.6186 7.80206V9.25462L32.6547 10.4093C30.4857 10.4093 27.7748 9.05277 24.5224 9.05277C21.2687 9.05277 18.5582 10.4093 16.3892 10.4093L10.4251 9.25462V7.80206C10.4251 6.60527 9.45437 5.63428 8.25644 5.63428C7.0585 5.63428 6.08789 6.60527 6.08789 7.80215V14.5804C6.08789 15.7771 7.0585 16.7483 8.25644 16.7483C9.45437 16.7483 10.4251 15.7772 10.4251 14.5804V13.3027C12.1577 13.665 14.546 14.1609 16.1183 14.4756C18.6059 14.9731 19.5043 18.4282 23.4032 18.9964V22.5865C22.7774 22.6389 22.2843 23.1579 22.2843 23.7968C22.2843 23.8063 22.2871 23.8151 22.2871 23.8246C20.0803 24.7114 18.5208 26.8673 18.5208 29.391C18.5208 32.7054 21.2075 35.3922 24.522 35.3922C27.8365 35.3922 30.5232 32.7055 30.5232 29.391C30.5232 26.8672 28.9637 24.7114 26.757 23.8246C26.757 23.815 26.7598 23.8063 26.7598 23.7968C26.7598 23.1579 26.2667 22.639 25.6409 22.5865V18.9964C29.5394 18.4281 30.4386 14.9731 32.9258 14.4756C34.4975 14.1609 36.8863 13.6651 38.6186 13.3027V14.5804C38.6186 15.7771 39.5896 16.7483 40.788 16.7483C41.9855 16.7483 42.9557 15.7772 42.9557 14.5804V7.80215C42.9557 6.60527 41.9855 5.63428 40.788 5.63428ZM28.4888 29.3909C28.4888 31.5818 26.7129 33.3578 24.522 33.3578C22.3311 33.3578 20.5552 31.5817 20.5552 29.3909C20.5552 27.2001 22.3312 25.4241 24.522 25.4241C26.7129 25.4241 28.4888 27.2001 28.4888 29.3909Z" fill="#726FFE" fill-opacity="0.15"/>
<path d="M16.5167 1.88867H0V4.72003H16.5167V1.88867Z" fill="#726FFE" fill-opacity="0.15"/>
<path d="M49.0468 1.88867H32.5293V4.72003H49.0468V1.88867Z" fill="#726FFE" fill-opacity="0.15"/>
<path d="M8.25994 0C7.57576 0 7.02148 0.554662 7.02148 1.23961H9.49878C9.49878 0.554662 8.94364 0 8.25994 0Z" fill="#726FFE" fill-opacity="0.15"/>
<path d="M40.7884 0C40.1035 0 39.5488 0.554662 39.5488 1.23961H42.0265C42.0264 0.554662 41.4718 0 40.7884 0Z" fill="#726FFE" fill-opacity="0.15"/>
<path d="M25.6322 27.1111C25.296 26.9483 24.9238 26.8481 24.5252 26.8481C23.1207 26.8481 21.9824 27.9869 21.9824 29.391C21.9824 30.7951 23.1208 31.9338 24.5252 31.9338C25.9297 31.9338 27.0681 30.7951 27.0681 29.391C27.0681 29.0476 26.9981 28.7203 26.8746 28.4215C26.7303 28.8077 26.3652 29.0858 25.9286 29.0858C25.3668 29.0858 24.9114 28.6304 24.9114 28.0686C24.9115 27.6126 25.2178 27.2399 25.6322 27.1111Z" fill="#726FFE" fill-opacity="0.15"/>
</svg>
