<svg width="129" height="84" viewBox="0 0 129 84" fill="none" xmlns="http://www.w3.org/2000/svg">
<path d="M7.68321 49.7603L2.19521 49.7189L2.32931 31.9351L8.06044 31.9783C9.78557 31.9913 11.2591 32.3584 12.481 33.0797C13.7029 33.7952 14.636 34.8183 15.2802 36.1489C15.9244 37.4738 16.2395 39.0566 16.2256 40.8975C16.2117 42.75 15.8697 44.3424 15.1996 45.6747C14.5297 47.0012 13.561 48.0186 12.2935 48.7269C11.0262 49.4295 9.48938 49.7739 7.68321 49.7603ZM4.36314 47.8248L7.55867 47.8489C9.02909 47.86 10.2498 47.5855 11.2209 47.0255C12.1919 46.4654 12.9187 45.6633 13.4013 44.6191C13.8839 43.5748 14.1307 42.3291 14.1416 40.8818C14.1524 39.4461 13.9273 38.2084 13.4662 37.1687C13.0051 36.1231 12.3107 35.3189 11.3828 34.7562C10.455 34.1876 9.29646 33.8981 7.9071 33.8876L4.46842 33.8617L4.36314 47.8248ZM19.7707 49.8514L19.9048 32.0676L25.9138 32.1129C27.3031 32.1234 28.4418 32.3693 29.3297 32.8507C30.2177 33.3264 30.8728 33.9768 31.295 34.8021C31.7172 35.6274 31.9243 36.5639 31.9164 37.6117C31.9085 38.6595 31.6873 39.5871 31.2528 40.3943C30.8183 41.2015 30.1564 41.8334 29.2672 42.2898C28.3781 42.7405 27.2446 42.9606 25.8668 42.9502L21.004 42.9135L21.0187 40.9684L25.812 41.0046C26.7614 41.0117 27.5266 40.8785 28.1076 40.605C28.6944 40.3316 29.1199 39.9411 29.3843 39.4336C29.6545 38.9204 29.7922 38.3078 29.7976 37.5957C29.803 36.8837 29.6745 36.2604 29.4123 35.7258C29.15 35.1912 28.7276 34.7769 28.1451 34.4831C27.5626 34.1834 26.7909 34.03 25.8299 34.0227L22.0439 33.9942L21.9242 49.8677L19.7707 49.8514ZM28.2018 41.9257L32.5181 49.9476L30.0173 49.9287L25.7705 41.9074L28.2018 41.9257ZM50.4841 41.1906C50.4699 43.0662 50.1191 44.6846 49.4314 46.0457C48.7438 47.4068 47.8067 48.4534 46.6202 49.1855C45.4337 49.9176 44.082 50.2779 42.5653 50.2665C41.0486 50.255 39.7025 49.8744 38.5271 49.1245C37.3518 48.3746 36.4306 47.314 35.7636 45.9427C35.0966 44.5713 34.7701 42.9479 34.7843 41.0722C34.7984 39.1966 35.1493 37.5782 35.8369 36.2171C36.5245 34.856 37.4616 33.8094 38.6481 33.0773C39.8347 32.3452 41.1863 31.9849 42.7031 31.9963C44.2198 32.0078 45.5658 32.3884 46.7412 33.1383C47.9166 33.8882 48.8378 34.9488 49.5048 36.3202C50.1718 37.6915 50.4982 39.315 50.4841 41.1906ZM48.4 41.1749C48.4116 39.635 48.1638 38.3334 47.6566 37.2701C47.1552 36.2069 46.4694 35.3999 45.5994 34.8492C44.7351 34.2984 43.7646 34.019 42.6879 34.0109C41.6111 34.0028 40.6336 34.2675 39.7554 34.8051C38.8829 35.3427 38.1851 36.1393 37.6619 37.1948C37.1444 38.2503 36.8799 39.548 36.8683 41.0879C36.8567 42.6278 37.1016 43.9294 37.6031 44.9926C38.1103 46.0559 38.796 46.8629 39.6603 47.4136C40.5303 47.9643 41.5037 48.2438 42.5805 48.2519C43.6572 48.26 44.6318 47.9953 45.5043 47.4576C46.3825 46.9201 47.0804 46.1235 47.5978 45.068C48.121 44.0125 48.3884 42.7148 48.4 41.1749ZM68.2742 32.4323L68.1401 50.2162L66.0561 50.2005L56.4705 36.1643L56.2969 36.163L56.1916 50.1261L54.0381 50.1098L54.1722 32.326L56.2562 32.3417L65.8762 46.4129L66.0499 46.4142L66.1554 32.4163L68.2742 32.4323Z" fill="#726FFE"/>
<path d="M2.19521 49.7189L0.293328 49.7046L0.278988 51.6065L2.18087 51.6208L2.19521 49.7189ZM2.32931 31.9351L2.34365 30.0332L0.441761 30.0188L0.427421 31.9207L2.32931 31.9351ZM12.481 33.0797L11.5141 34.7176L11.5199 34.721L12.481 33.0797ZM15.2802 36.1489L13.5683 36.9777L13.5697 36.9806L15.2802 36.1489ZM15.1996 45.6747L16.8973 46.5322L16.8988 46.5292L15.1996 45.6747ZM12.2935 48.7269L13.2156 50.3904L13.2214 50.3872L12.2935 48.7269ZM4.36314 47.8248L2.46125 47.8104L2.44691 49.7123L4.34879 49.7267L4.36314 47.8248ZM11.2209 47.0255L10.2706 45.3779L11.2209 47.0255ZM13.4662 37.1687L11.7259 37.936L11.7275 37.9397L13.4662 37.1687ZM11.3828 34.7562L10.3891 36.3778L10.3965 36.3823L11.3828 34.7562ZM4.46842 33.8617L4.48276 31.9598L2.58087 31.9454L2.56653 33.8473L4.46842 33.8617ZM7.69755 47.8584L2.20956 47.817L2.18087 51.6208L7.66887 51.6622L7.69755 47.8584ZM4.0971 49.7333L4.23119 31.9494L0.427421 31.9207L0.293328 49.7046L4.0971 49.7333ZM2.31497 33.8369L8.0461 33.8802L8.07478 30.0764L2.34365 30.0332L2.31497 33.8369ZM8.0461 33.8802C9.50816 33.8912 10.6373 34.2 11.5141 34.7176L13.4478 31.4419C11.8809 30.5169 10.063 30.0914 8.07478 30.0764L8.0461 33.8802ZM11.5199 34.721C12.4018 35.2374 13.0807 35.9705 13.5683 36.9777L16.992 35.3202C16.1913 33.6661 15.0041 32.3531 13.442 31.4385L11.5199 34.721ZM13.5697 36.9806C14.0578 37.9845 14.336 39.2639 14.3238 40.8832L18.1275 40.9119C18.1431 38.8494 17.7909 36.963 16.9906 35.3172L13.5697 36.9806ZM14.3238 40.8832C14.3115 42.5129 14.0115 43.8041 13.5005 44.8202L16.8988 46.5292C17.7279 44.8807 18.1119 42.9871 18.1275 40.9119L14.3238 40.8832ZM13.502 44.8172C12.9986 45.8139 12.294 46.5478 11.3657 47.0667L13.2214 50.3872C14.8279 49.4894 16.0607 48.1885 16.8973 46.5322L13.502 44.8172ZM11.3714 47.0635C10.4529 47.5726 9.25592 47.8702 7.69755 47.8584L7.66887 51.6622C9.72284 51.6777 11.5994 51.2863 13.2156 50.3904L11.3714 47.0635ZM4.34879 49.7267L7.54433 49.7508L7.57301 45.947L4.37748 45.9229L4.34879 49.7267ZM7.54433 49.7508C9.25043 49.7636 10.8291 49.447 12.1711 48.673L10.2706 45.3779C9.67052 45.724 8.80774 45.9563 7.57301 45.947L7.54433 49.7508ZM12.1711 48.673C13.4918 47.9113 14.485 46.8078 15.1278 45.417L11.6748 43.8212C11.3524 44.5188 10.892 45.0195 10.2706 45.3779L12.1711 48.673ZM15.1278 45.417C15.7493 44.0722 16.031 42.5464 16.0435 40.8962L12.2397 40.8675C12.2303 42.1117 12.0186 43.0774 11.6748 43.8212L15.1278 45.417ZM16.0435 40.8962C16.0558 39.2587 15.8003 37.7405 15.2048 36.3976L11.7275 37.9397C12.0542 38.6764 12.249 39.6336 12.2397 40.8675L16.0435 40.8962ZM15.2064 36.4013C14.5969 35.019 13.6487 33.906 12.3692 33.13L10.3965 36.3823C10.9727 36.7318 11.4134 37.2272 11.7259 37.936L15.2064 36.4013ZM12.3766 33.1345C11.0827 32.3416 9.56237 31.9981 7.92144 31.9857L7.89276 35.7895C9.03055 35.7981 9.8274 36.0336 10.3891 36.3778L12.3766 33.1345ZM7.92144 31.9857L4.48276 31.9598L4.45408 35.7636L7.89276 35.7895L7.92144 31.9857ZM2.56653 33.8473L2.46125 47.8104L6.26502 47.8391L6.3703 33.876L2.56653 33.8473ZM19.7707 49.8514L17.8688 49.8371L17.8545 51.739L19.7563 51.7533L19.7707 49.8514ZM19.9048 32.0676L19.9191 30.1657L18.0172 30.1513L18.0029 32.0532L19.9048 32.0676ZM29.3297 32.8507L28.4232 34.5228L28.4317 34.5273L29.3297 32.8507ZM31.295 34.8021L29.6017 35.6683L29.6017 35.6683L31.295 34.8021ZM31.2528 40.3943L29.5781 39.4928L29.5781 39.4928L31.2528 40.3943ZM29.2672 42.2898L30.1271 43.9863L30.1358 43.9818L29.2672 42.2898ZM21.004 42.9135L19.1021 42.8992L19.0878 44.8011L20.9897 44.8154L21.004 42.9135ZM21.0187 40.9684L21.033 39.0665L19.1311 39.0522L19.1168 40.9541L21.0187 40.9684ZM28.1076 40.605L27.3042 38.8811L27.2975 38.8842L28.1076 40.605ZM29.3843 39.4336L27.7013 38.5476L27.6975 38.555L29.3843 39.4336ZM28.1451 34.4831L27.275 36.1743L27.2817 36.1778L27.2884 36.1812L28.1451 34.4831ZM22.0439 33.9942L22.0582 32.0923L20.1563 32.078L20.142 33.9799L22.0439 33.9942ZM21.9242 49.8677L21.9099 51.7696L23.8117 51.7839L23.8261 49.882L21.9242 49.8677ZM28.2018 41.9257L29.8767 41.0245L29.3429 40.0323L28.2162 40.0238L28.2018 41.9257ZM32.5181 49.9476L32.5038 51.8495L35.7142 51.8737L34.193 49.0464L32.5181 49.9476ZM30.0173 49.9287L28.3364 50.8186L28.8676 51.822L30.0029 51.8306L30.0173 49.9287ZM25.7705 41.9074L25.7848 40.0055L22.5987 39.9815L24.0896 42.7973L25.7705 41.9074ZM21.6726 49.8658L21.8067 32.0819L18.0029 32.0532L17.8688 49.8371L21.6726 49.8658ZM19.8904 33.9695L25.8994 34.0148L25.9281 30.211L19.9191 30.1657L19.8904 33.9695ZM25.8994 34.0148C27.0883 34.0237 27.8928 34.2352 28.4232 34.5227L30.2363 31.1787C28.9908 30.5035 27.518 30.223 25.9281 30.211L25.8994 34.0148ZM28.4317 34.5273C29.0093 34.8367 29.3713 35.2179 29.6017 35.6683L32.9882 33.9359C32.3742 32.7357 31.4261 31.816 30.2278 31.1742L28.4317 34.5273ZM29.6017 35.6683C29.8673 36.1874 30.0204 36.8153 30.0145 37.5974L33.8183 37.6261C33.8282 36.3125 33.567 35.0674 32.9882 33.9359L29.6017 35.6683ZM30.0145 37.5974C30.0086 38.3801 29.8459 38.9952 29.5781 39.4928L32.9275 41.2957C33.5287 40.1789 33.8084 38.939 33.8183 37.6261L30.0145 37.5974ZM29.5781 39.4928C29.3426 39.9303 28.9777 40.3005 28.3987 40.5978L30.1358 43.9818C31.3352 43.3662 32.294 42.4727 32.9275 41.2957L29.5781 39.4928ZM28.4074 40.5933C27.8724 40.8644 27.0651 41.0572 25.8811 41.0483L25.8525 44.8521C27.4241 44.8639 28.8837 44.6165 30.1271 43.9863L28.4074 40.5933ZM25.8811 41.0483L21.0184 41.0116L20.9897 44.8154L25.8525 44.8521L25.8811 41.0483ZM22.9059 42.9279L22.9206 40.9828L19.1168 40.9541L19.1021 42.8992L22.9059 42.9279ZM21.0043 42.8703L25.7977 42.9064L25.8263 39.1027L21.033 39.0665L21.0043 42.8703ZM25.7977 42.9064C26.9068 42.9148 27.9856 42.7646 28.9177 42.3258L27.2975 38.8842C27.0676 38.9925 26.616 39.1086 25.8263 39.1027L25.7977 42.9064ZM28.911 42.329C29.8249 41.903 30.5883 41.2392 31.0711 40.3123L27.6975 38.555C27.6516 38.643 27.5639 38.7601 27.3042 38.8811L28.911 42.329ZM31.0673 40.3196C31.5077 39.4831 31.6924 38.5578 31.6995 37.6101L27.8957 37.5814C27.8921 38.0577 27.8013 38.3578 27.7013 38.5476L31.0673 40.3196ZM31.6995 37.6101C31.7067 36.6601 31.5352 35.7348 31.1198 34.888L27.7047 36.5635C27.8139 36.786 27.8993 37.1073 27.8957 37.5814L31.6995 37.6101ZM31.1198 34.888C30.6575 33.9457 29.9165 33.2465 29.0017 32.785L27.2884 36.1812C27.5386 36.3074 27.6425 36.4366 27.7047 36.5635L31.1198 34.888ZM29.0151 32.7918C28.0733 32.3073 26.9745 32.1294 25.8442 32.1209L25.8156 35.9246C26.6073 35.9306 27.0519 36.0596 27.275 36.1743L29.0151 32.7918ZM25.8442 32.1209L22.0582 32.0923L22.0295 35.8961L25.8156 35.9246L25.8442 32.1209ZM20.142 33.9799L20.0223 49.8533L23.8261 49.882L23.9458 34.0085L20.142 33.9799ZM21.9385 47.9658L19.785 47.9496L19.7563 51.7533L21.9099 51.7696L21.9385 47.9658ZM26.527 42.8269L30.8432 50.8488L34.193 49.0464L29.8767 41.0245L26.527 42.8269ZM32.5324 48.0457L30.0316 48.0268L30.0029 51.8306L32.5038 51.8495L32.5324 48.0457ZM31.6981 49.0388L27.4513 41.0175L24.0896 42.7973L28.3364 50.8186L31.6981 49.0388ZM25.7561 43.8093L28.1875 43.8276L28.2162 40.0238L25.7848 40.0055L25.7561 43.8093ZM49.4314 46.0457L47.7338 45.1881L47.7338 45.1881L49.4314 46.0457ZM46.6202 49.1855L47.6189 50.8041L47.6189 50.8041L46.6202 49.1855ZM38.5271 49.1245L37.5042 50.7279L37.5042 50.7279L38.5271 49.1245ZM35.7636 45.9427L37.4739 45.1107L37.4739 45.1107L35.7636 45.9427ZM35.8369 36.2171L34.1393 35.3595L35.8369 36.2171ZM46.7412 33.1383L47.7642 31.5349L47.7642 31.5349L46.7412 33.1383ZM49.5048 36.3202L47.7944 37.1521L47.7944 37.1521L49.5048 36.3202ZM47.6566 37.2701L45.9364 38.0815L45.94 38.0891L47.6566 37.2701ZM45.5994 34.8492L44.5773 36.4531L44.5821 36.4562L45.5994 34.8492ZM39.7554 34.8051L38.7624 33.1829L38.7576 33.1859L39.7554 34.8051ZM37.6619 37.1948L35.9578 36.3501L35.9541 36.3576L37.6619 37.1948ZM37.6031 44.9926L35.8828 45.8039L35.8864 45.8115L37.6031 44.9926ZM39.6603 47.4136L38.6382 49.0176L38.643 49.0206L39.6603 47.4136ZM45.5043 47.4576L44.5114 45.8355L44.5065 45.8384L45.5043 47.4576ZM47.5978 45.068L45.8937 44.2232L45.89 44.2308L47.5978 45.068ZM48.5822 41.1763C48.5698 42.825 48.2624 44.1419 47.7338 45.1881L51.1291 46.9033C51.9757 45.2274 52.3701 43.3075 52.386 41.2049L48.5822 41.1763ZM47.7338 45.1881C47.1892 46.2663 46.4816 47.0362 45.6215 47.5669L47.6189 50.8041C49.1319 49.8706 50.2985 48.5474 51.1291 46.9033L47.7338 45.1881ZM45.6215 47.5669C44.7659 48.0947 43.7714 48.3736 42.5796 48.3646L42.551 52.1684C44.3926 52.1823 46.1014 51.7404 47.6189 50.8041L45.6215 47.5669ZM42.5796 48.3646C41.3879 48.3556 40.3977 48.0618 39.5501 47.5211L37.5042 50.7279C39.0074 51.6869 40.7093 52.1545 42.551 52.1684L42.5796 48.3646ZM39.5501 47.5211C38.6981 46.9775 38.0023 46.197 37.4739 45.1107L34.0532 46.7746C34.8589 48.4309 36.0054 49.7717 37.5042 50.7279L39.5501 47.5211ZM37.4739 45.1107C36.9612 44.0566 36.6737 42.7353 36.6861 41.0866L32.8824 41.0579C32.8665 43.1604 33.2319 45.086 34.0532 46.7746L37.4739 45.1107ZM36.6861 41.0866C36.6986 39.4378 37.006 38.121 37.5345 37.0747L34.1393 35.3595C33.2926 37.0354 32.8982 38.9553 32.8824 41.0579L36.6861 41.0866ZM37.5345 37.0747C38.0792 35.9965 38.7867 35.2266 39.6468 34.6959L37.6495 31.4587C36.1365 32.3922 34.9698 33.7155 34.1393 35.3595L37.5345 37.0747ZM39.6468 34.6959C40.5024 34.1681 41.4969 33.8892 42.6887 33.8982L42.7174 30.0944C40.8757 30.0806 39.167 30.5224 37.6495 31.4587L39.6468 34.6959ZM42.6887 33.8982C43.8805 33.9072 44.8707 34.201 45.7182 34.7417L47.7642 31.5349C46.261 30.5759 44.5591 30.1083 42.7174 30.0944L42.6887 33.8982ZM45.7182 34.7417C46.5702 35.2853 47.2661 36.0658 47.7944 37.1521L51.2151 35.4882C50.4095 33.8319 49.2629 32.4911 47.7642 31.5349L45.7182 34.7417ZM47.7944 37.1521C48.3071 38.2062 48.5946 39.5275 48.5822 41.1763L52.386 41.2049C52.4018 39.1024 52.0364 37.1768 51.2151 35.4882L47.7944 37.1521ZM50.3019 41.1892C50.3151 39.4462 50.0366 37.8418 49.3732 36.4512L45.94 38.0891C46.2911 38.825 46.5082 39.8238 46.4982 41.1605L50.3019 41.1892ZM49.3768 36.4588C48.7437 35.1165 47.8333 34.0123 46.6167 33.2421L44.5821 36.4562C45.1056 36.7876 45.5666 37.2974 45.9364 38.0814L49.3768 36.4588ZM46.6215 33.2452C45.4403 32.4925 44.1172 32.1197 42.7022 32.109L42.6735 35.9128C43.412 35.9184 44.0299 36.1043 44.5773 36.4531L46.6215 33.2452ZM42.7022 32.109C41.2872 32.0984 39.9579 32.4512 38.7624 33.1829L40.7483 36.4273C41.3093 36.0839 41.935 35.9072 42.6735 35.9128L42.7022 32.109ZM38.7576 33.1859C37.5386 33.9371 36.6151 35.0241 35.9578 36.3501L39.3659 38.0395C39.7551 37.2544 40.2272 36.7484 40.7531 36.4243L38.7576 33.1859ZM35.9541 36.3576C35.2784 37.736 34.9795 39.3332 34.9664 41.0736L38.7702 41.1023C38.7803 39.7629 39.0105 38.7646 39.3696 38.0319L35.9541 36.3576ZM34.9664 41.0736C34.9533 42.814 35.228 44.4155 35.8828 45.8039L39.3233 44.1813C38.9752 43.4433 38.7601 42.4416 38.7702 41.1023L34.9664 41.0736ZM35.8864 45.8115C36.5236 47.1472 37.4307 48.2481 38.6382 49.0176L40.6824 45.8096C40.1614 45.4776 39.6969 44.9645 39.3197 44.1737L35.8864 45.8115ZM38.643 49.0206C39.8273 49.7703 41.1511 50.1431 42.5661 50.1538L42.5948 46.35C41.8563 46.3444 41.2333 46.1584 40.6776 45.8066L38.643 49.0206ZM42.5661 50.1538C43.9811 50.1645 45.3097 49.8116 46.5021 49.0769L44.5065 45.8384C43.954 46.1789 43.3333 46.3556 42.5948 46.35L42.5661 50.1538ZM46.4972 49.0798C47.7253 48.3281 48.6523 47.2378 49.3056 45.9051L45.89 44.2308C45.5084 45.0092 45.0398 45.512 44.5114 45.8355L46.4972 49.0798ZM49.3019 45.9127C49.9861 44.5322 50.2888 42.9323 50.3019 41.1892L46.4982 41.1605C46.4881 42.4973 46.2559 43.4927 45.8937 44.2233L49.3019 45.9127ZM68.2742 32.4323L70.1761 32.4466L70.1904 30.5447L68.2886 30.5304L68.2742 32.4323ZM68.1401 50.2162L68.1258 52.1181L70.0277 52.1324L70.042 50.2305L68.1401 50.2162ZM66.0561 50.2005L64.4854 51.2731L65.0466 52.0948L66.0417 52.1023L66.0561 50.2005ZM56.4705 36.1643L58.0412 35.0917L57.48 34.2699L56.4849 34.2624L56.4705 36.1643ZM56.2969 36.163L56.3112 34.2611L54.4093 34.2467L54.395 36.1486L56.2969 36.163ZM56.1916 50.1261L56.1772 52.028L58.0791 52.0423L58.0935 50.1404L56.1916 50.1261ZM54.0381 50.1098L52.1362 50.0955L52.1218 51.9974L54.0237 52.0117L54.0381 50.1098ZM54.1722 32.326L54.1865 30.4241L52.2846 30.4097L52.2703 32.3116L54.1722 32.326ZM56.2562 32.3417L57.8263 31.2683L57.265 30.4473L56.2706 30.4398L56.2562 32.3417ZM65.8762 46.4129L64.3061 47.4863L64.8674 48.3072L65.8619 48.3147L65.8762 46.4129ZM66.0499 46.4142L66.0356 48.3161L67.9374 48.3304L67.9518 46.4285L66.0499 46.4142ZM66.1554 32.4163L66.1698 30.5144L64.2679 30.5001L64.2535 32.402L66.1554 32.4163ZM66.3723 32.418L66.2382 50.2018L70.042 50.2305L70.1761 32.4466L66.3723 32.418ZM68.1545 48.3143L66.0704 48.2986L66.0417 52.1023L68.1258 52.1181L68.1545 48.3143ZM67.6267 49.1278L58.0412 35.0917L54.8999 37.2369L64.4854 51.2731L67.6267 49.1278ZM56.4849 34.2624L56.3112 34.2611L56.2825 38.0648L56.4562 38.0661L56.4849 34.2624ZM54.395 36.1486L54.2897 50.1117L58.0935 50.1404L58.1988 36.1773L54.395 36.1486ZM56.2059 48.2242L54.0524 48.2079L54.0237 52.0117L56.1772 52.028L56.2059 48.2242ZM55.94 50.1242L56.074 32.3403L52.2703 32.3116L52.1362 50.0955L55.94 50.1242ZM54.1578 34.2278L56.2419 34.2436L56.2706 30.4398L54.1865 30.4241L54.1578 34.2278ZM54.6861 33.4151L64.3061 47.4863L67.4463 45.3394L57.8263 31.2683L54.6861 33.4151ZM65.8619 48.3147L66.0356 48.3161L66.0642 44.5123L65.8906 44.511L65.8619 48.3147ZM67.9518 46.4285L68.0573 32.4307L64.2535 32.402L64.148 46.3998L67.9518 46.4285ZM66.1411 34.3182L68.2599 34.3342L68.2886 30.5304L66.1698 30.5144L66.1411 34.3182Z" fill="#726FFE"/>
<path d="M66.662 75.5853L66.7961 57.8014L77.4595 57.8818L77.4451 59.7922L68.9352 59.728L68.8899 65.737L76.6009 65.7951L76.5865 67.7055L68.8755 67.6474L68.8155 75.6015L66.662 75.5853ZM81.0137 75.6935L81.1478 57.9096L83.3013 57.9258L83.1816 73.7993L91.4484 73.8617L91.434 75.772L81.0137 75.6935ZM92.5384 57.9955L95.0046 58.0141L99.8742 66.3527L100.083 66.3543L105.077 58.09L107.544 58.1086L101.039 68.5152L100.984 75.8441L98.8302 75.8278L98.8854 68.4989L92.5384 57.9955Z" fill="#726FFE"/>
<path d="M66.662 75.5853L64.7601 75.5709L64.7458 77.4728L66.6477 77.4871L66.662 75.5853ZM66.7961 57.8014L66.8104 55.8995L64.9086 55.8852L64.8942 57.787L66.7961 57.8014ZM77.4595 57.8818L79.3614 57.8961L79.3757 55.9942L77.4738 55.9799L77.4595 57.8818ZM77.4451 59.7922L77.4307 61.6941L79.3326 61.7084L79.347 59.8065L77.4451 59.7922ZM68.9352 59.728L68.9496 57.8261L67.0477 57.8118L67.0333 59.7137L68.9352 59.728ZM68.8899 65.737L66.988 65.7227L66.9737 67.6245L68.8756 67.6389L68.8899 65.737ZM76.6009 65.7951L78.5028 65.8095L78.5171 63.9076L76.6152 63.8933L76.6009 65.7951ZM76.5865 67.7055L76.5721 69.6074L78.474 69.6218L78.4884 67.7199L76.5865 67.7055ZM68.8755 67.6474L68.8898 65.7455L66.988 65.7312L66.9736 67.633L68.8755 67.6474ZM68.8155 75.6015L68.8012 77.5034L70.7031 77.5177L70.7174 75.6158L68.8155 75.6015ZM68.5639 75.5996L68.698 57.8157L64.8942 57.787L64.7601 75.5709L68.5639 75.5996ZM66.7818 59.7033L77.4451 59.7837L77.4738 55.9799L66.8104 55.8995L66.7818 59.7033ZM75.5576 57.8674L75.5432 59.7778L79.347 59.8065L79.3614 57.8961L75.5576 57.8674ZM77.4594 57.8903L68.9496 57.8261L68.9209 61.6299L77.4307 61.6941L77.4594 57.8903ZM67.0333 59.7137L66.988 65.7227L70.7918 65.7513L70.8371 59.7423L67.0333 59.7137ZM68.8756 67.6389L76.5865 67.697L76.6152 63.8933L68.9042 63.8351L68.8756 67.6389ZM74.699 65.7808L74.6846 67.6912L78.4884 67.7199L78.5028 65.8095L74.699 65.7808ZM76.6008 65.8036L68.8898 65.7455L68.8612 69.5493L76.5721 69.6074L76.6008 65.8036ZM66.9736 67.633L66.9136 75.5872L70.7174 75.6158L70.7774 67.6617L66.9736 67.633ZM68.8299 73.6996L66.6764 73.6834L66.6477 77.4871L68.8012 77.5034L68.8299 73.6996ZM81.0137 75.6935L79.1118 75.6791L79.0975 77.581L80.9994 77.5954L81.0137 75.6935ZM81.1478 57.9096L81.1622 56.0077L79.2603 55.9934L79.2459 57.8953L81.1478 57.9096ZM83.3013 57.9258L85.2032 57.9402L85.2176 56.0383L83.3157 56.024L83.3013 57.9258ZM83.1816 73.7993L81.2798 73.785L81.2654 75.6869L83.1673 75.7012L83.1816 73.7993ZM91.4484 73.8617L93.3502 73.876L93.3646 71.9741L91.4627 71.9598L91.4484 73.8617ZM91.434 75.772L91.4196 77.6739L93.3215 77.6883L93.3358 75.7864L91.434 75.772ZM82.9156 75.7078L83.0497 57.9239L79.2459 57.8953L79.1118 75.6791L82.9156 75.7078ZM81.1335 59.8115L83.287 59.8277L83.3157 56.024L81.1622 56.0077L81.1335 59.8115ZM81.3994 57.9115L81.2798 73.785L85.0835 73.8137L85.2032 57.9402L81.3994 57.9115ZM83.1673 75.7012L91.434 75.7636L91.4627 71.9598L83.196 71.8974L83.1673 75.7012ZM89.5465 73.8473L89.5321 75.7577L93.3358 75.7864L93.3502 73.876L89.5465 73.8473ZM91.4483 73.8702L81.0281 73.7916L80.9994 77.5954L91.4196 77.6739L91.4483 73.8702ZM92.5384 57.9955L92.5528 56.0936L89.1514 56.068L90.9106 58.9791L92.5384 57.9955ZM95.0046 58.0141L96.6469 57.055L96.1012 56.1204L95.0189 56.1122L95.0046 58.0141ZM99.8742 66.3527L98.2318 67.3119L98.7776 68.2465L99.8599 68.2546L99.8742 66.3527ZM100.083 66.3543L100.068 68.2562L101.151 68.2643L101.71 67.3381L100.083 66.3543ZM105.077 58.09L105.092 56.1882L104.01 56.18L103.45 57.1062L105.077 58.09ZM107.544 58.1086L109.156 59.1167L110.959 56.2324L107.558 56.2067L107.544 58.1086ZM101.039 68.5152L99.4261 67.5071L99.1411 67.9631L99.137 68.5008L101.039 68.5152ZM100.984 75.8441L100.969 77.7459L102.871 77.7603L102.886 75.8584L100.984 75.8441ZM98.8302 75.8278L96.9283 75.8135L96.9139 77.7154L98.8158 77.7297L98.8302 75.8278ZM98.8854 68.4989L100.787 68.5133L100.791 67.9755L100.513 67.5153L98.8854 68.4989ZM92.5241 59.8974L94.9902 59.916L95.0189 56.1122L92.5528 56.0936L92.5241 59.8974ZM93.3622 58.9732L98.2318 67.3119L101.517 65.3936L96.6469 57.055L93.3622 58.9732ZM99.8599 68.2546L100.068 68.2562L100.097 64.4524L99.8885 64.4508L99.8599 68.2546ZM101.71 67.3381L106.705 59.0738L103.45 57.1062L98.4549 65.3705L101.71 67.3381ZM105.063 59.9919L107.529 60.0105L107.558 56.2067L105.092 56.1882L105.063 59.9919ZM105.931 57.1005L99.4261 67.5071L102.652 69.5232L109.156 59.1167L105.931 57.1005ZM99.137 68.5008L99.0818 75.8297L102.886 75.8584L102.941 68.5295L99.137 68.5008ZM100.998 73.9422L98.8445 73.9259L98.8158 77.7297L100.969 77.7459L100.998 73.9422ZM100.732 75.8422L100.787 68.5133L96.9835 68.4846L96.9283 75.8135L100.732 75.8422ZM100.513 67.5153L94.1663 57.0118L90.9106 58.9791L97.2576 69.4826L100.513 67.5153Z" fill="#726FFE"/>
<path d="M66.9417 48.721L69.1112 44.6293L80.3543 42.3081C81.1004 42.1533 81.757 41.986 82.3241 41.8062C82.9017 41.6232 83.396 41.3829 83.8071 41.0854C84.225 40.7915 84.5642 40.3991 84.8245 39.9081C85.1102 39.3693 85.2383 38.8475 85.2089 38.3427C85.1864 37.8415 85.0282 37.3819 84.7343 36.964C84.444 36.5392 84.0363 36.1876 83.5112 35.9092C82.9861 35.6308 82.4664 35.4906 81.9519 35.4887C81.4443 35.4903 80.9729 35.6379 80.5377 35.9314C80.1025 36.2249 79.7294 36.6648 79.4185 37.2513L74.0174 34.3875C74.7984 32.9144 75.8017 31.8214 77.0273 31.1083C78.2529 30.3952 79.6211 30.0722 81.1319 30.1394C82.6427 30.2065 84.2096 30.6704 85.8326 31.531C87.5103 32.4205 88.82 33.4601 89.7619 34.6497C90.7142 35.8361 91.2677 37.0907 91.4226 38.4135C91.5843 39.7398 91.3198 41.0543 90.6292 42.3568C90.2025 43.1616 89.6106 43.8743 88.8533 44.495C88.0997 45.1089 87.035 45.667 85.6591 46.1693C84.2831 46.6717 82.4447 47.1647 80.1438 47.6484L77.312 48.2437L77.2469 48.3664L85.4304 52.7056L83.0222 57.2474L66.9417 48.721Z" fill="white"/>
<ellipse cx="6.87102" cy="3.34452" rx="6.87102" ry="3.34452" transform="matrix(0.777509 0.628871 -0.628863 0.777516 104.756 36.5741)" fill="#37465B"/>
<ellipse cx="4.7971" cy="1.71412" rx="4.7971" ry="1.71412" transform="matrix(0.970466 0.241237 -0.241232 0.970467 91.5938 12.8243)" fill="#37465B"/>
<ellipse cx="2.9872" cy="1.72661" rx="2.9872" ry="1.72661" transform="matrix(0.846716 0.532044 -0.532036 0.846722 112.283 22.9404)" fill="#37465B"/>
<path d="M69.182 21.1752L69.4918 19.6647C79.1486 20.7823 83.2186 20.0413 88.3134 16.5169C85.8533 19.7633 84.8507 26.4986 86.5819 27.5172C79.5691 23.5844 75.7404 22.0695 69.182 21.1752Z" stroke="#37465B" stroke-width="1.35853"/>
<path d="M105.631 38.8063L103.684 39.3439C101.857 37.4191 101.092 36.4796 95.524 32.536C98.3729 32.7079 99.8313 31.1732 102.183 25.4694C100.993 28.7245 101.336 31.3272 105.631 38.8063Z" stroke="#37465B" stroke-width="1.35853"/>
<path d="M85.1074 11.1375L86.51 11.4251C88.7402 14.8221 90.109 15.5395 92.788 14.4367C90.2374 14.8893 88.785 15.1224 87.578 16.816C86.7184 14.3346 86.1789 13.0884 85.1074 11.1375Z" stroke="#37465B" stroke-width="1.35853"/>
<path d="M102.087 19.7159C102.844 22.6694 102.722 24.3991 101.401 27.6326C107.306 25.8481 108.8 25.877 111.583 25.8608L111.723 25.1775C107.172 24.3742 104.829 23.5721 102.087 19.7159ZM102.087 19.7159C99.6839 15.3018 97.6806 14.0507 92.6593 14.5217" stroke="#37465B" stroke-width="1.35853"/>
<ellipse cx="5.15404" cy="2.44018" rx="5.15404" ry="2.44018" transform="matrix(0.979608 0.20092 -0.200916 0.979608 60.4883 16.2458)" fill="#37465B"/>
<ellipse cx="65.1405" cy="16.6887" rx="4.44821" ry="12.3821" transform="rotate(0.248748 65.1405 16.6887)" fill="#D9D9D9" fill-opacity="0.5"/>
<ellipse cx="14.1432" cy="2.59791" rx="14.1432" ry="2.59791" transform="matrix(0.958375 0.285514 -0.285508 0.958376 72.7969 0)" fill="#D9D9D9" fill-opacity="0.5"/>
<ellipse cx="16.8857" cy="3.89712" rx="16.8857" ry="3.89712" transform="matrix(0.986677 -0.16269 0.162687 0.986678 92.3359 40.9781)" fill="#D9D9D9" fill-opacity="0.5"/>
<ellipse cx="13.1723" cy="3.43629" rx="13.1723" ry="3.43629" transform="matrix(0.768653 0.639666 -0.639658 0.76866 108.75 12.2076)" fill="#D9D9D9" fill-opacity="0.5"/>
<ellipse cx="2.20101" cy="1.09606" rx="2.20101" ry="1.09606" transform="matrix(0.928603 0.371074 -0.371066 0.928606 83.5176 8.20776)" fill="#37465B"/>
<ellipse cx="9.61856" cy="9.61866" rx="9.61856" ry="9.61866" transform="matrix(0.979608 0.20092 -0.200916 0.979608 87.084 11.9167)" fill="#585858" stroke="#37465B" stroke-width="0.815117"/>
<path d="M101.555 24.7035C100.764 28.5583 96.9981 31.0424 93.1433 30.2517C89.2885 29.4611 86.8045 25.6952 87.5951 21.8403C88.3858 17.9855 92.1516 15.5014 96.0064 16.2921C99.8612 17.0827 102.345 20.8486 101.555 24.7035Z" fill="#585858" stroke="#37465B" stroke-width="0.434729"/>
<ellipse cx="5.50681" cy="5.50687" rx="5.50681" ry="5.50687" transform="matrix(0.979608 0.20092 -0.200916 0.979608 90.2871 16.7714)" fill="#37465B"/>
<ellipse cx="1.46848" cy="1.4685" rx="1.46848" ry="1.4685" transform="matrix(0.979608 0.20092 -0.200916 0.979608 96.5449 20.6034)" fill="white"/>
<ellipse cx="0.550681" cy="0.550687" rx="0.550681" ry="0.550687" transform="matrix(0.979608 0.20092 -0.200916 0.979608 94.6641 22.8403)" fill="white"/>
<g filter="url(#filter0_f_271_2)">
<path d="M63.1484 11.3288C63.2366 10.3081 63.4704 9.29146 63.8403 8.20495C63.6709 9.36428 63.5688 10.6098 63.521 11.8162C63.4711 13.073 63.4794 14.3046 63.5352 15.3704C63.1559 13.909 63.0377 12.6103 63.1484 11.3288ZM65.9912 23.972C65.9254 23.0789 65.7621 22.1627 65.4895 21.149C65.9498 22.1989 66.1739 23.1181 66.2135 24.0014C66.2458 24.7217 66.156 25.4269 65.9626 26.1699C66.0331 25.4287 66.0456 24.71 65.9912 23.972Z" stroke="white" stroke-width="0.543411"/>
</g>
<g filter="url(#filter1_f_271_2)">
<path d="M91.513 9.41185C90.4944 9.14257 89.505 8.79162 88.4872 8.32464C89.9471 8.87807 91.2815 9.31359 92.6305 9.67321C92.252 9.5956 91.8804 9.50899 91.513 9.41185ZM81.4246 4.48278C80.4439 4.03714 79.515 3.67748 78.5763 3.38648C77.9268 3.18512 77.274 3.01704 76.5975 2.87603C77.4127 2.97096 78.1648 3.12719 78.8868 3.35248C79.7525 3.62258 80.5799 3.99355 81.4246 4.48278Z" stroke="white" stroke-width="0.543411"/>
</g>
<g filter="url(#filter2_f_271_2)">
<path d="M113.885 42.3119C117.013 42.1679 119.548 41.6928 122.448 40.7708C121.032 41.3966 119.701 41.8275 118.33 42.0798C116.94 42.3356 115.503 42.4093 113.885 42.3119ZM106.521 41.8196C102.472 41.9553 99.491 42.4897 95.845 43.6475C97.7655 42.6882 99.4767 42.1114 101.219 41.8379C102.878 41.5774 104.575 41.5903 106.521 41.8196Z" stroke="white" stroke-width="0.543411"/>
</g>
<g filter="url(#filter3_f_271_2)">
<path d="M123.018 26.3505C122.112 25.5451 121.068 24.8456 119.76 24.2055C121.151 24.6618 122.219 25.253 123.095 26.0209C123.953 26.7726 124.638 27.7027 125.261 28.866C124.568 27.9213 123.854 27.0929 123.018 26.3505ZM110.836 20.0335C111.23 20.3778 111.638 20.701 112.069 21.0101C111.487 20.6656 110.967 20.2957 110.496 19.8872C109.783 19.2698 109.175 18.5592 108.624 17.7043C109.34 18.594 110.058 19.3534 110.836 20.0335Z" stroke="white" stroke-width="0.543411"/>
</g>
<defs>
<filter id="filter0_f_271_2" x="62.6205" y="4.23124" width="4.08903" height="24.9803" filterUnits="userSpaceOnUse" color-interpolation-filters="sRGB">
<feFlood flood-opacity="0" result="BackgroundImageFix"/>
<feBlend mode="normal" in="SourceGraphic" in2="BackgroundImageFix" result="shape"/>
<feGaussianBlur stdDeviation="0.108682" result="effect1_foregroundBlur_271_2"/>
</filter>
<filter id="filter1_f_271_2" x="71.9272" y="2.27275" width="27.3879" height="8.56827" filterUnits="userSpaceOnUse" color-interpolation-filters="sRGB">
<feFlood flood-opacity="0" result="BackgroundImageFix"/>
<feBlend mode="normal" in="SourceGraphic" in2="BackgroundImageFix" result="shape"/>
<feGaussianBlur stdDeviation="0.108682" result="effect1_foregroundBlur_271_2"/>
</filter>
<filter id="filter2_f_271_2" x="92.849" y="38.9357" width="33.5285" height="6.16776" filterUnits="userSpaceOnUse" color-interpolation-filters="sRGB">
<feFlood flood-opacity="0" result="BackgroundImageFix"/>
<feBlend mode="normal" in="SourceGraphic" in2="BackgroundImageFix" result="shape"/>
<feGaussianBlur stdDeviation="0.108682" result="effect1_foregroundBlur_271_2"/>
</filter>
<filter id="filter3_f_271_2" x="106.622" y="14.5096" width="20.4054" height="17.3893" filterUnits="userSpaceOnUse" color-interpolation-filters="sRGB">
<feFlood flood-opacity="0" result="BackgroundImageFix"/>
<feBlend mode="normal" in="SourceGraphic" in2="BackgroundImageFix" result="shape"/>
<feGaussianBlur stdDeviation="0.108682" result="effect1_foregroundBlur_271_2"/>
</filter>
</defs>
</svg>
