<svg width="81" height="53" viewBox="0 0 81 53" fill="none" xmlns="http://www.w3.org/2000/svg">
<path d="M4.8169 31.1455L1.37726 31.1196L1.4613 19.9734L5.05334 20.0005C6.13458 20.0087 7.05812 20.2388 7.82395 20.6909C8.58982 21.1393 9.17462 21.7805 9.57835 22.6145C9.98212 23.4449 10.1796 24.4369 10.1709 25.5907C10.1622 26.7518 9.94784 27.7498 9.52789 28.5849C9.10797 29.4163 8.50083 30.0539 7.70646 30.4979C6.91213 30.9382 5.94894 31.1541 4.8169 31.1455ZM2.73602 29.9324L4.73885 29.9475C5.66045 29.9545 6.42555 29.7825 7.03416 29.4315C7.64277 29.0805 8.09831 28.5777 8.40078 27.9232C8.70326 27.2687 8.85791 26.488 8.86475 25.5809C8.87154 24.6811 8.73043 23.9053 8.44144 23.2536C8.15247 22.5983 7.71722 22.0943 7.13568 21.7416C6.55418 21.3852 5.82803 21.2038 4.95723 21.1972L2.80201 21.1809L2.73602 29.9324ZM12.3928 31.2027L12.4769 20.0565L16.2431 20.0849C17.1139 20.0914 17.8275 20.2456 18.384 20.5473C18.9406 20.8454 19.3512 21.2531 19.6158 21.7704C19.8804 22.2876 20.0102 22.8746 20.0053 23.5313C20.0003 24.188 19.8617 24.7694 19.5893 25.2753C19.317 25.7813 18.9022 26.1773 18.3449 26.4633C17.7876 26.7458 17.0772 26.8838 16.2136 26.8773L13.1658 26.8543L13.175 25.6352L16.1793 25.6578C16.7743 25.6623 17.2539 25.5788 17.6181 25.4074C17.9858 25.236 18.2526 24.9913 18.4182 24.6732C18.5876 24.3516 18.6739 23.9676 18.6773 23.5213C18.6807 23.075 18.6002 22.6843 18.4358 22.3493C18.2714 22.0142 18.0066 21.7546 17.6415 21.5704C17.2765 21.3826 16.7928 21.2864 16.1905 21.2819L13.8176 21.264L13.7426 31.2129L12.3928 31.2027ZM17.6771 26.2352L20.3824 31.2629L18.815 31.2511L16.1532 26.2237L17.6771 26.2352ZM31.6427 25.7744C31.6338 26.95 31.4139 27.9643 30.983 28.8174C30.552 29.6705 29.9647 30.3264 29.221 30.7853C28.4773 31.2441 27.6302 31.47 26.6795 31.4628C25.7289 31.4556 24.8853 31.217 24.1486 30.747C23.4119 30.277 22.8346 29.6123 22.4165 28.7528C21.9984 27.8933 21.7939 26.8758 21.8027 25.7002C21.8116 24.5246 22.0315 23.5103 22.4625 22.6572C22.8934 21.8041 23.4808 21.1482 24.2244 20.6893C24.9681 20.2305 25.8153 20.0047 26.7659 20.0118C27.7165 20.019 28.5602 20.2576 29.2968 20.7276C30.0335 21.1976 30.6109 21.8623 31.0289 22.7218C31.447 23.5813 31.6516 24.5988 31.6427 25.7744ZM30.3365 25.7646C30.3438 24.7994 30.1885 23.9837 29.8706 23.3172C29.5563 22.6508 29.1265 22.1451 28.5812 21.7999C28.0395 21.4547 27.4312 21.2796 26.7564 21.2745C26.0815 21.2694 25.4688 21.4353 24.9184 21.7722C24.3716 22.1092 23.9342 22.6085 23.6063 23.27C23.282 23.9316 23.1162 24.7449 23.1089 25.7101C23.1016 26.6752 23.2551 27.491 23.5694 28.1573C23.8873 28.8238 24.3171 29.3296 24.8588 29.6747C25.4041 30.0199 26.0142 30.1951 26.6891 30.2001C27.3639 30.2052 27.9748 30.0393 28.5216 29.7023C29.072 29.3654 29.5094 28.8662 29.8337 28.2046C30.1616 27.543 30.3292 26.7297 30.3365 25.7646ZM42.7928 20.2851L42.7088 31.4313L41.4026 31.4214L35.3948 22.6241L35.2859 22.6233L35.2199 31.3748L33.8702 31.3646L33.9542 20.2184L35.2604 20.2283L41.2899 29.0475L41.3987 29.0483L41.4649 20.2751L42.7928 20.2851Z" fill="#1F2C35"/>
<path d="M1.37726 31.1196L0.185236 31.1106L0.176248 32.3026L1.36827 32.3116L1.37726 31.1196ZM1.4613 19.9734L1.47029 18.7814L0.278269 18.7724L0.269281 19.9644L1.4613 19.9734ZM7.82395 20.6909L7.21797 21.7174L7.22161 21.7195L7.82395 20.6909ZM9.57835 22.6145L8.50541 23.1339L8.50632 23.1358L9.57835 22.6145ZM9.52789 28.5849L10.5919 29.1223L10.5929 29.1205L9.52789 28.5849ZM7.70646 30.4979L8.2844 31.5405L8.28801 31.5385L7.70646 30.4979ZM2.73602 29.9324L1.544 29.9235L1.53501 31.1155L2.72703 31.1245L2.73602 29.9324ZM8.44144 23.2536L7.35071 23.7346L7.35172 23.7369L8.44144 23.2536ZM7.13568 21.7416L6.51282 22.758L6.51748 22.7608L7.13568 21.7416ZM2.80201 21.1809L2.811 19.9889L1.61897 19.9799L1.60999 21.172L2.80201 21.1809ZM4.82589 29.9535L1.38625 29.9276L1.36827 32.3116L4.80792 32.3376L4.82589 29.9535ZM2.56928 31.1286L2.65333 19.9824L0.269281 19.9644L0.185236 31.1106L2.56928 31.1286ZM1.45232 21.1654L5.04435 21.1925L5.06233 18.8085L1.47029 18.7814L1.45232 21.1654ZM5.04435 21.1925C5.96071 21.1994 6.6684 21.393 7.21797 21.7174L8.42993 19.6643C7.44783 19.0846 6.30844 18.8179 5.06233 18.8085L5.04435 21.1925ZM7.22161 21.7195C7.77433 22.0432 8.19983 22.5027 8.50541 23.1339L10.6513 22.0951C10.1494 21.0584 9.40531 20.2354 8.4263 19.6622L7.22161 21.7195ZM8.50632 23.1358C8.81225 23.765 8.98658 24.5668 8.97892 25.5817L11.363 25.5997C11.3727 24.307 11.152 23.1248 10.6504 22.0932L8.50632 23.1358ZM8.97892 25.5817C8.97122 26.6032 8.78319 27.4125 8.46293 28.0493L10.5929 29.1205C11.1125 28.0872 11.3532 26.9004 11.363 25.5997L8.97892 25.5817ZM8.46386 28.0474C8.14836 28.6721 7.70678 29.1321 7.12492 29.4573L8.28801 31.5385C9.29488 30.9757 10.0676 30.1604 10.5919 29.1223L8.46386 28.0474ZM7.12853 29.4553C6.55284 29.7744 5.80262 29.9609 4.82589 29.9535L4.80792 32.3376C6.09526 32.3473 7.27141 32.102 8.2844 31.5405L7.12853 29.4553ZM2.72703 31.1245L4.72986 31.1396L4.74784 28.7555L2.74501 28.7404L2.72703 31.1245ZM4.72986 31.1396C5.79918 31.1476 6.78862 30.9492 7.62971 30.4641L6.43861 28.3988C6.06247 28.6158 5.52171 28.7614 4.74784 28.7555L4.72986 31.1396ZM7.62971 30.4641C8.4575 29.9867 9.08 29.295 9.48287 28.4233L7.3187 27.4231C7.11662 27.8604 6.82804 28.1742 6.43861 28.3988L7.62971 30.4641ZM9.48287 28.4233C9.87239 27.5805 10.049 26.6242 10.0568 25.5899L7.67273 25.5719C7.66685 26.3517 7.53412 26.957 7.3187 27.4231L9.48287 28.4233ZM10.0568 25.5899C10.0645 24.5636 9.90438 23.612 9.53115 22.7704L7.35172 23.7369C7.55649 24.1986 7.67856 24.7986 7.67273 25.5719L10.0568 25.5899ZM9.53216 22.7727C9.15012 21.9063 8.55581 21.2087 7.75389 20.7223L6.51748 22.7608C6.87862 22.9798 7.15481 23.2903 7.35072 23.7346L9.53216 22.7727ZM7.75854 20.7252C6.94756 20.2282 5.99469 20.0129 4.96622 20.0052L4.94824 22.3892C5.66136 22.3946 6.16079 22.5422 6.51283 22.758L7.75854 20.7252ZM4.96622 20.0052L2.811 19.9889L2.79302 22.373L4.94824 22.3892L4.96622 20.0052ZM1.60999 21.172L1.544 29.9235L3.92805 29.9414L3.99403 21.1899L1.60999 21.172ZM12.3928 31.2027L11.2008 31.1937L11.1918 32.3857L12.3838 32.3947L12.3928 31.2027ZM12.4769 20.0565L12.4859 18.8645L11.2938 18.8555L11.2849 20.0475L12.4769 20.0565ZM18.384 20.5473L17.8159 21.5953L17.8212 21.5981L18.384 20.5473ZM19.6158 21.7704L18.5545 22.3133L18.5545 22.3133L19.6158 21.7704ZM19.5893 25.2753L18.5397 24.7103L18.5397 24.7103L19.5893 25.2753ZM18.3449 26.4633L18.8838 27.5266L18.8892 27.5238L18.3449 26.4633ZM13.1658 26.8543L11.9738 26.8453L11.9648 28.0373L13.1568 28.0463L13.1658 26.8543ZM13.175 25.6352L13.184 24.4431L11.992 24.4341L11.983 25.6262L13.175 25.6352ZM17.6181 25.4074L17.1145 24.3269L17.1103 24.3289L17.6181 25.4074ZM18.4182 24.6732L17.3634 24.1179L17.361 24.1225L18.4182 24.6732ZM17.6415 21.5704L17.0962 22.6305L17.1046 22.6347L17.6415 21.5704ZM13.8176 21.264L13.8266 20.072L12.6345 20.063L12.6256 21.255L13.8176 21.264ZM13.7426 31.2129L13.7336 32.4049L14.9256 32.4139L14.9346 31.2218L13.7426 31.2129ZM17.6771 26.2352L18.7269 25.6703L18.3923 25.0485L17.6861 25.0431L17.6771 26.2352ZM20.3824 31.2629L20.3734 32.4549L22.3856 32.4701L21.4321 30.6981L20.3824 31.2629ZM18.815 31.2511L17.7614 31.8089L18.0944 32.4378L18.806 32.4431L18.815 31.2511ZM16.1532 26.2237L16.1622 25.0316L14.1653 25.0166L15.0997 26.7814L16.1532 26.2237ZM13.5849 31.2117L13.6689 20.0655L11.2849 20.0475L11.2008 31.1937L13.5849 31.2117ZM12.4679 21.2485L16.2341 21.2769L16.2521 18.8929L12.4859 18.8645L12.4679 21.2485ZM16.2341 21.2769C16.9792 21.2825 17.4834 21.415 17.8159 21.5953L18.9522 19.4994C18.1716 19.0762 17.2485 18.9004 16.2521 18.8929L16.2341 21.2769ZM17.8212 21.5981C18.1832 21.7921 18.4101 22.031 18.5545 22.3133L20.677 21.2275C20.2922 20.4753 19.6979 19.8988 18.9469 19.4965L17.8212 21.5981ZM18.5545 22.3133C18.7209 22.6386 18.8169 23.0321 18.8132 23.5223L21.1973 23.5403C21.2035 22.717 21.0398 21.9366 20.677 21.2275L18.5545 22.3133ZM18.8132 23.5223C18.8095 24.0129 18.7076 24.3984 18.5397 24.7103L20.639 25.8403C21.0158 25.1403 21.1911 24.3632 21.1973 23.5403L18.8132 23.5223ZM18.5397 24.7103C18.3921 24.9845 18.1634 25.2165 17.8005 25.4028L18.8892 27.5238C19.641 27.138 20.2419 26.578 20.639 25.8403L18.5397 24.7103ZM17.806 25.4001C17.4707 25.57 16.9647 25.6908 16.2226 25.6852L16.2046 28.0693C17.1897 28.0767 18.1045 27.9216 18.8838 27.5266L17.806 25.4001ZM16.2226 25.6852L13.1748 25.6623L13.1568 28.0463L16.2046 28.0693L16.2226 25.6852ZM14.3579 26.8633L14.3671 25.6441L11.983 25.6262L11.9738 26.8453L14.3579 26.8633ZM13.166 26.8272L16.1703 26.8498L16.1883 24.4658L13.184 24.4431L13.166 26.8272ZM16.1703 26.8498C16.8654 26.8551 17.5416 26.7609 18.1258 26.4859L17.1103 24.3289C16.9662 24.3967 16.6832 24.4695 16.1883 24.4658L16.1703 26.8498ZM18.1216 26.4879C18.6944 26.2209 19.1728 25.8049 19.4755 25.2239L17.361 24.1225C17.3323 24.1777 17.2773 24.2511 17.1145 24.3269L18.1216 26.4879ZM19.4731 25.2285C19.7491 24.7042 19.8648 24.1243 19.8693 23.5303L17.4853 23.5123C17.483 23.8109 17.4261 23.9989 17.3634 24.1179L19.4731 25.2285ZM19.8693 23.5303C19.8738 22.9349 19.7663 22.3549 19.506 21.8242L17.3656 22.8743C17.434 23.0138 17.4875 23.2152 17.4853 23.5123L19.8693 23.5303ZM19.506 21.8242C19.2162 21.2336 18.7518 20.7954 18.1785 20.5061L17.1046 22.6347C17.2615 22.7138 17.3266 22.7948 17.3656 22.8743L19.506 21.8242ZM18.1869 20.5104C17.5966 20.2067 16.9079 20.0952 16.1995 20.0899L16.1815 22.4739C16.6777 22.4777 16.9564 22.5585 17.0962 22.6304L18.1869 20.5104ZM16.1995 20.0899L13.8266 20.072L13.8086 22.456L16.1815 22.4739L16.1995 20.0899ZM12.6256 21.255L12.5505 31.2039L14.9346 31.2218L15.0096 21.273L12.6256 21.255ZM13.7516 30.0208L12.4018 30.0107L12.3838 32.3947L13.7336 32.4049L13.7516 30.0208ZM16.6274 26.8L19.3326 31.8277L21.4321 30.6981L18.7269 25.6703L16.6274 26.8ZM20.3914 30.0709L18.8239 30.0591L18.806 32.4431L20.3734 32.4549L20.3914 30.0709ZM19.8685 30.6933L17.2068 25.6659L15.0997 26.7814L17.7614 31.8089L19.8685 30.6933ZM16.1443 27.4157L17.6681 27.4272L17.6861 25.0431L16.1622 25.0316L16.1443 27.4157ZM30.983 28.8174L29.919 28.2799L29.919 28.2799L30.983 28.8174ZM29.221 30.7853L29.8469 31.7998L29.8469 31.7998L29.221 30.7853ZM24.1486 30.747L23.5074 31.752L24.1486 30.747ZM22.4165 28.7528L23.4885 28.2314L23.4885 28.2314L22.4165 28.7528ZM22.4625 22.6572L21.3985 22.1197L22.4625 22.6572ZM29.2968 20.7276L29.938 19.7226L29.2968 20.7276ZM31.0289 22.7218L29.9569 23.2432L29.9569 23.2432L31.0289 22.7218ZM29.8706 23.3172L28.7924 23.8257L28.7947 23.8305L29.8706 23.3172ZM28.5812 21.7999L27.9406 22.8052L27.9436 22.8071L28.5812 21.7999ZM24.9184 21.7722L24.2961 20.7555L24.293 20.7574L24.9184 21.7722ZM23.6063 23.27L22.5382 22.7406L22.5359 22.7453L23.6063 23.27ZM23.5694 28.1573L22.4912 28.6658L22.4935 28.6706L23.5694 28.1573ZM24.8588 29.6747L24.2182 30.68L24.2212 30.6819L24.8588 29.6747ZM28.5216 29.7023L27.8993 28.6856L27.8962 28.6875L28.5216 29.7023ZM29.8337 28.2046L28.7657 27.6751L28.7633 27.6799L29.8337 28.2046ZM30.4507 25.7654C30.4429 26.7988 30.2502 27.6241 29.919 28.2799L32.047 29.3549C32.5776 28.3045 32.8248 27.1012 32.8347 25.7834L30.4507 25.7654ZM29.919 28.2799C29.5776 28.9556 29.1341 29.4382 28.5951 29.7708L29.8469 31.7998C30.7952 31.2147 31.5264 30.3853 32.047 29.3549L29.919 28.2799ZM28.5951 29.7708C28.0588 30.1016 27.4355 30.2764 26.6885 30.2708L26.6706 32.6548C27.8248 32.6635 28.8958 32.3866 29.8469 31.7998L28.5951 29.7708ZM26.6885 30.2708C25.9416 30.2651 25.321 30.081 24.7898 29.7421L23.5074 31.752C24.4496 32.3531 25.5163 32.6461 26.6706 32.6548L26.6885 30.2708ZM24.7898 29.7421C24.2558 29.4014 23.8196 28.9122 23.4885 28.2314L21.3445 29.2742C21.8495 30.3124 22.5681 31.1527 23.5074 31.752L24.7898 29.7421ZM23.4885 28.2314C23.1671 27.5707 22.9869 26.7426 22.9947 25.7092L20.6107 25.6912C20.6008 27.009 20.8298 28.2159 21.3445 29.2742L23.4885 28.2314ZM22.9947 25.7092C23.0025 24.6758 23.1952 23.8505 23.5265 23.1947L21.3985 22.1197C20.8678 23.1701 20.6206 24.3734 20.6107 25.6912L22.9947 25.7092ZM23.5265 23.1947C23.8678 22.519 24.3113 22.0364 24.8504 21.7038L23.5985 19.6748C22.6502 20.2599 21.919 21.0893 21.3985 22.1197L23.5265 23.1947ZM24.8504 21.7038C25.3866 21.373 26.0099 21.1982 26.7569 21.2038L26.7749 18.8198C25.6206 18.8111 24.5496 19.088 23.5985 19.6748L24.8504 21.7038ZM26.7569 21.2038C27.5038 21.2095 28.1245 21.3936 28.6557 21.7325L29.938 19.7226C28.9958 19.1215 27.9292 18.8285 26.7749 18.8198L26.7569 21.2038ZM28.6557 21.7325C29.1897 22.0732 29.6258 22.5624 29.9569 23.2432L32.1009 22.2004C31.5959 21.1623 30.8773 20.322 29.938 19.7226L28.6557 21.7325ZM29.9569 23.2432C30.2783 23.9039 30.4585 24.7321 30.4507 25.7654L32.8347 25.7834C32.8447 24.4656 32.6157 23.2587 32.1009 22.2004L29.9569 23.2432ZM31.5285 25.7735C31.5368 24.6811 31.3622 23.6755 30.9465 22.804L28.7947 23.8305C29.0147 24.2918 29.1508 24.9178 29.1445 25.7556L31.5285 25.7735ZM30.9487 22.8087C30.5519 21.9674 29.9813 21.2753 29.2188 20.7927L27.9436 22.8071C28.2717 23.0148 28.5606 23.3343 28.7924 23.8257L30.9487 22.8087ZM29.2218 20.7946C28.4815 20.3228 27.6522 20.0891 26.7654 20.0825L26.7474 22.4665C27.2103 22.47 27.5975 22.5866 27.9406 22.8052L29.2218 20.7946ZM26.7654 20.0825C25.8785 20.0758 25.0453 20.2969 24.2961 20.7555L25.5407 22.789C25.8923 22.5737 26.2845 22.463 26.7474 22.4665L26.7654 20.0825ZM24.293 20.7574C23.529 21.2282 22.9502 21.9095 22.5382 22.7406L24.6743 23.7994C24.9182 23.3074 25.2141 22.9902 25.5438 22.7871L24.293 20.7574ZM22.5359 22.7453C22.1124 23.6092 21.9251 24.6103 21.9169 25.7011L24.3009 25.7191C24.3073 24.8796 24.4515 24.2539 24.6766 23.7947L22.5359 22.7453ZM21.9169 25.7011C21.9087 26.7919 22.0808 27.7956 22.4913 28.6658L24.6476 27.6489C24.4294 27.1863 24.2946 26.5585 24.3009 25.7191L21.9169 25.7011ZM22.4935 28.6706C22.8929 29.5078 23.4614 30.1978 24.2182 30.68L25.4994 28.6694C25.1729 28.4614 24.8818 28.1397 24.6453 27.6441L22.4935 28.6706ZM24.2212 30.6819C24.9635 31.1518 25.7932 31.3855 26.6801 31.3922L26.6981 29.0081C26.2352 29.0046 25.8447 28.888 25.4964 28.6675L24.2212 30.6819ZM26.6801 31.3922C27.5669 31.3989 28.3996 31.1777 29.147 30.7172L27.8962 28.6875C27.5499 28.9009 27.1609 29.0116 26.6981 29.0081L26.6801 31.3922ZM29.1439 30.719C29.9136 30.2479 30.4946 29.5645 30.9041 28.7293L28.7633 27.6799C28.5242 28.1678 28.2304 28.4829 27.8993 28.6856L29.1439 30.719ZM30.9018 28.734C31.3306 27.8688 31.5203 26.866 31.5285 25.7735L29.1445 25.7556C29.1382 26.5934 28.9927 27.2173 28.7657 27.6752L30.9018 28.734ZM42.7928 20.2851L43.9848 20.2941L43.9938 19.102L42.8018 19.093L42.7928 20.2851ZM42.7088 31.4313L42.6998 32.6233L43.8918 32.6323L43.9008 31.4402L42.7088 31.4313ZM41.4026 31.4214L40.4182 32.0937L40.7699 32.6087L41.3936 32.6134L41.4026 31.4214ZM35.3948 22.6241L36.3792 21.9518L36.0274 21.4368L35.4038 21.4321L35.3948 22.6241ZM35.2859 22.6233L35.2949 21.4313L34.1029 21.4223L34.0939 22.6143L35.2859 22.6233ZM35.2199 31.3748L35.2109 32.5668L36.403 32.5758L36.412 31.3838L35.2199 31.3748ZM33.8702 31.3646L32.6782 31.3556L32.6692 32.5477L33.8612 32.5566L33.8702 31.3646ZM33.9542 20.2184L33.9632 19.0264L32.7712 19.0174L32.7622 20.2094L33.9542 20.2184ZM35.2604 20.2283L36.2445 19.5555L35.8927 19.041L35.2694 19.0363L35.2604 20.2283ZM41.2899 29.0475L40.3058 29.7203L40.6576 30.2348L41.2809 30.2395L41.2899 29.0475ZM41.3987 29.0483L41.3897 30.2404L42.5817 30.2493L42.5907 29.0573L41.3987 29.0483ZM41.4649 20.2751L41.4739 19.083L40.2818 19.074L40.2728 20.2661L41.4649 20.2751ZM41.6008 20.2761L41.5168 31.4223L43.9008 31.4402L43.9848 20.2941L41.6008 20.2761ZM42.7178 30.2392L41.4116 30.2294L41.3936 32.6134L42.6998 32.6233L42.7178 30.2392ZM42.387 30.7491L36.3792 21.9518L34.4104 23.2964L40.4182 32.0937L42.387 30.7491ZM35.4038 21.4321L35.2949 21.4313L35.2769 23.8153L35.3858 23.8161L35.4038 21.4321ZM34.0939 22.6143L34.0279 31.3658L36.412 31.3838L36.4779 22.6323L34.0939 22.6143ZM35.2289 30.1828L33.8792 30.1726L33.8612 32.5566L35.2109 32.5668L35.2289 30.1828ZM35.0622 31.3736L35.1463 20.2274L32.7622 20.2094L32.6782 31.3556L35.0622 31.3736ZM33.9453 21.4104L35.2515 21.4203L35.2694 19.0363L33.9632 19.0264L33.9453 21.4104ZM34.2764 20.901L40.3058 29.7203L42.2739 28.3747L36.2445 19.5555L34.2764 20.901ZM41.2809 30.2395L41.3897 30.2404L41.4077 27.8563L41.2988 27.8555L41.2809 30.2395ZM42.5907 29.0573L42.6569 20.284L40.2728 20.2661L40.2067 29.0393L42.5907 29.0573ZM41.4559 21.4671L42.7838 21.4771L42.8018 19.093L41.4739 19.083L41.4559 21.4671Z" fill="#1F2C35"/>
<path d="M41.7796 47.3315L41.8636 36.1853L48.547 36.2357L48.538 37.4331L43.2044 37.3929L43.176 41.1591L48.0089 41.1955L47.9998 42.3928L43.1669 42.3564L43.1293 47.3417L41.7796 47.3315ZM50.7747 47.3994L50.8587 36.2532L52.2084 36.2633L52.1334 46.2122L57.3147 46.2513L57.3056 47.4486L50.7747 47.3994ZM57.9979 36.307L59.5435 36.3186L62.5956 41.545L62.7262 41.5459L65.8568 36.3662L67.4025 36.3779L63.3256 42.9003L63.291 47.4937L61.9413 47.4836L61.9759 42.8901L57.9979 36.307Z" fill="#1F2C35"/>
<path d="M41.7796 47.3315L40.5876 47.3225L40.5786 48.5146L41.7706 48.5236L41.7796 47.3315ZM41.8636 36.1853L41.8726 34.9933L40.6806 34.9843L40.6716 36.1763L41.8636 36.1853ZM48.547 36.2357L49.739 36.2447L49.748 35.0527L48.556 35.0437L48.547 36.2357ZM48.538 37.4331L48.529 38.6251L49.721 38.6341L49.73 37.4421L48.538 37.4331ZM43.2044 37.3929L43.2133 36.2008L42.0213 36.1918L42.0123 37.3839L43.2044 37.3929ZM43.176 41.1591L41.9839 41.1501L41.9749 42.3421L43.167 42.3511L43.176 41.1591ZM48.0089 41.1955L49.2009 41.2045L49.2099 40.0125L48.0179 40.0035L48.0089 41.1955ZM47.9998 42.3928L47.9909 43.5849L49.1829 43.5938L49.1919 42.4018L47.9998 42.3928ZM43.1669 42.3564L43.1759 41.1644L41.9839 41.1554L41.9749 42.3474L43.1669 42.3564ZM43.1293 47.3417L43.1203 48.5337L44.3124 48.5427L44.3214 47.3507L43.1293 47.3417ZM42.9716 47.3405L43.0557 36.1943L40.6716 36.1763L40.5876 47.3225L42.9716 47.3405ZM41.8547 37.3774L48.538 37.4278L48.556 35.0437L41.8726 34.9933L41.8547 37.3774ZM47.355 36.2267L47.346 37.4241L49.73 37.4421L49.739 36.2447L47.355 36.2267ZM48.547 36.2411L43.2133 36.2008L43.1954 38.5849L48.529 38.6251L48.547 36.2411ZM42.0123 37.3839L41.9839 41.1501L44.368 41.168L44.3964 37.4018L42.0123 37.3839ZM43.167 42.3511L47.9999 42.3875L48.0179 40.0035L43.1849 39.967L43.167 42.3511ZM46.8169 41.1865L46.8078 42.3839L49.1919 42.4018L49.2009 41.2045L46.8169 41.1865ZM48.0088 41.2008L43.1759 41.1644L43.1579 43.5484L47.9909 43.5849L48.0088 41.2008ZM41.9749 42.3474L41.9373 47.3327L44.3214 47.3507L44.359 42.3654L41.9749 42.3474ZM43.1383 46.1497L41.7886 46.1395L41.7706 48.5236L43.1203 48.5337L43.1383 46.1497ZM50.7747 47.3994L49.5826 47.3904L49.5736 48.5824L50.7657 48.5914L50.7747 47.3994ZM50.8587 36.2532L50.8677 35.0611L49.6757 35.0521L49.6667 36.2442L50.8587 36.2532ZM52.2084 36.2633L53.4005 36.2723L53.4094 35.0803L52.2174 35.0713L52.2084 36.2633ZM52.1334 46.2122L50.9414 46.2032L50.9324 47.3952L52.1244 47.4042L52.1334 46.2122ZM57.3147 46.2513L58.5067 46.2602L58.5157 45.0682L57.3236 45.0592L57.3147 46.2513ZM57.3056 47.4486L57.2966 48.6406L58.4887 48.6496L58.4976 47.4576L57.3056 47.4486ZM51.9667 47.4083L52.0507 36.2621L49.6667 36.2442L49.5826 47.3904L51.9667 47.4083ZM50.8497 37.4452L52.1994 37.4554L52.2174 35.0713L50.8677 35.0611L50.8497 37.4452ZM51.0164 36.2544L50.9414 46.2032L53.3254 46.2212L53.4005 36.2723L51.0164 36.2544ZM52.1244 47.4042L57.3057 47.4433L57.3236 45.0592L52.1424 45.0202L52.1244 47.4042ZM56.1226 46.2423L56.1136 47.4396L58.4976 47.4576L58.5067 46.2602L56.1226 46.2423ZM57.3146 46.2566L50.7836 46.2073L50.7657 48.5914L57.2966 48.6406L57.3146 46.2566ZM57.9979 36.307L58.0069 35.115L55.875 35.0989L56.9776 36.9235L57.9979 36.307ZM59.5435 36.3186L60.5729 35.7175L60.2308 35.1317L59.5525 35.1266L59.5435 36.3186ZM62.5956 41.545L61.5662 42.1461L61.9083 42.7319L62.5866 42.737L62.5956 41.545ZM62.7262 41.5459L62.7173 42.738L63.3956 42.7431L63.7464 42.1625L62.7262 41.5459ZM65.8568 36.3662L65.8658 35.1742L65.1875 35.1691L64.8366 35.7497L65.8568 36.3662ZM67.4025 36.3779L68.4133 37.0097L69.5433 35.202L67.4115 35.1859L67.4025 36.3779ZM63.3256 42.9003L62.3148 42.2684L62.1361 42.5543L62.1336 42.8913L63.3256 42.9003ZM63.291 47.4937L63.282 48.6858L64.474 48.6947L64.483 47.5027L63.291 47.4937ZM61.9413 47.4836L60.7492 47.4746L60.7402 48.6666L61.9323 48.6756L61.9413 47.4836ZM61.9759 42.8901L63.1679 42.8991L63.1705 42.5621L62.9961 42.2736L61.9759 42.8901ZM57.9889 37.499L59.5345 37.5107L59.5525 35.1266L58.0069 35.115L57.9889 37.499ZM58.5142 36.9198L61.5662 42.1461L63.625 40.9438L60.5729 35.7175L58.5142 36.9198ZM62.5866 42.737L62.7173 42.738L62.7352 40.3539L62.6046 40.3529L62.5866 42.737ZM63.7464 42.1625L66.877 36.9828L64.8366 35.7497L61.706 40.9293L63.7464 42.1625ZM65.8478 37.5583L67.3935 37.5699L67.4115 35.1859L65.8658 35.1742L65.8478 37.5583ZM66.3916 35.7461L62.3148 42.2684L64.3365 43.5321L68.4133 37.0097L66.3916 35.7461ZM62.1336 42.8913L62.099 47.4847L64.483 47.5027L64.5176 42.9093L62.1336 42.8913ZM63.3 46.3017L61.9502 46.2915L61.9323 48.6756L63.282 48.6858L63.3 46.3017ZM63.1333 47.4925L63.1679 42.8991L60.7839 42.8811L60.7492 47.4746L63.1333 47.4925ZM62.9961 42.2736L59.0181 35.6905L56.9776 36.9235L60.9556 43.5066L62.9961 42.2736Z" fill="#1F2C35"/>
<path d="M41.6885 31.0403L43.0483 28.4758L50.095 27.021C50.5626 26.924 50.9742 26.8191 51.3296 26.7064C51.6916 26.5917 52.0015 26.4411 52.2591 26.2547C52.5211 26.0705 52.7336 25.8245 52.8968 25.5168C53.0758 25.1791 53.1562 24.852 53.1377 24.5356C53.1236 24.2215 53.0244 23.9334 52.8402 23.6715C52.6583 23.4053 52.4028 23.1849 52.0737 23.0104C51.7446 22.8359 51.4188 22.7481 51.0964 22.7469C50.7782 22.7479 50.4827 22.8404 50.21 23.0243C49.9372 23.2083 49.7034 23.484 49.5085 23.8516L46.1233 22.0567C46.6128 21.1335 47.2417 20.4484 48.0098 20.0014C48.778 19.5545 49.6355 19.3521 50.5824 19.3942C51.5293 19.4363 52.5114 19.727 53.5287 20.2664C54.5801 20.8239 55.401 21.4754 55.9913 22.221C56.5882 22.9646 56.9352 23.7509 57.0322 24.58C57.1336 25.4113 56.9678 26.2351 56.5349 27.0515C56.2675 27.5559 55.8965 28.0026 55.4219 28.3916C54.9496 28.7764 54.2822 29.1262 53.4198 29.441C52.5575 29.7559 51.4052 30.0649 49.9631 30.368L48.1882 30.7411L48.1474 30.8181L53.2765 33.5377L51.7672 36.3843L41.6885 31.0403Z" fill="#726FFE"/>
<ellipse cx="67.6844" cy="27.2609" rx="4.30648" ry="2.0962" transform="rotate(38.9666 67.6844 27.2609)" fill="#1F2C35"/>
<ellipse cx="60.0649" cy="9.80551" rx="3.00664" ry="1.07433" transform="rotate(13.9594 60.0649 9.80551)" fill="#1F2C35"/>
<ellipse cx="71.3826" cy="16.2903" rx="1.87225" ry="1.08216" transform="rotate(32.1434 71.3826 16.2903)" fill="#1F2C35"/>
<path d="M43.3593 13.2716L43.5535 12.3249C49.606 13.0254 52.1569 12.561 55.3501 10.3521C53.8083 12.3868 53.1798 16.6081 54.2649 17.2466C49.8695 14.7816 47.4698 13.8322 43.3593 13.2716Z" stroke="#1F2C35" stroke-width="0.85147"/>
<path d="M66.2025 24.3219L64.9825 24.6589C63.8374 23.4525 63.3577 22.8636 59.868 20.3919C61.6536 20.4997 62.5677 19.5378 64.0413 15.9629C63.2959 18.0031 63.5109 19.6343 66.2025 24.3219Z" stroke="#1F2C35" stroke-width="0.85147"/>
<path d="M53.3418 6.98047L54.2209 7.16077C55.6187 9.28983 56.4766 9.73948 58.1557 9.04828C56.5571 9.33198 55.6468 9.47805 54.8902 10.5395C54.3515 8.98433 54.0133 8.20321 53.3418 6.98047Z" stroke="#1F2C35" stroke-width="0.85147"/>
<path d="M63.9831 12.357C64.4571 14.2082 64.3806 15.2923 63.5526 17.3188C67.2542 16.2004 68.1901 16.2185 69.9344 16.2084L70.0222 15.7801C67.1698 15.2766 65.7012 14.7739 63.9831 12.357ZM63.9831 12.357C62.4767 9.59047 61.2211 8.80636 58.0739 9.10156" stroke="#1F2C35" stroke-width="0.85147"/>
<ellipse cx="40.7674" cy="12.3294" rx="3.23036" ry="1.52939" transform="rotate(11.5907 40.7674 12.3294)" fill="#1F2C35"/>
<ellipse cx="40.8265" cy="10.4596" rx="2.78797" ry="7.76054" transform="rotate(0.248745 40.8265 10.4596)" fill="#D9D9D9" fill-opacity="0.5"/>
<ellipse cx="53.6536" cy="4.09137" rx="8.86442" ry="1.62826" transform="rotate(16.5894 53.6536 4.09137)" fill="#D9D9D9" fill-opacity="0.5"/>
<ellipse cx="68.7108" cy="26.3718" rx="10.5833" ry="2.44254" transform="rotate(-9.36297 68.7108 26.3718)" fill="#D9D9D9" fill-opacity="0.5"/>
<ellipse cx="73.1284" cy="14.5878" rx="8.25586" ry="2.15372" transform="rotate(39.7666 73.1284 14.5878)" fill="#D9D9D9" fill-opacity="0.5"/>
<ellipse cx="53.3718" cy="6.29434" rx="1.3795" ry="0.686962" transform="rotate(21.7816 53.3718 6.29434)" fill="#1F2C35"/>
<circle cx="59.2744" cy="14.5861" r="6.02855" transform="rotate(11.5907 59.2744 14.5861)" fill="#585858" stroke="#1F2C35" stroke-width="0.510882"/>
<circle cx="59.2749" cy="14.5855" r="4.46571" transform="rotate(11.5907 59.2749 14.5855)" fill="#585858" stroke="#1F2C35" stroke-width="0.27247"/>
<circle cx="59.2736" cy="14.5863" r="3.45146" transform="rotate(11.5907 59.2736 14.5863)" fill="#1F2C35"/>
<circle cx="61.2265" cy="13.9996" r="0.920389" transform="rotate(11.5907 61.2265 13.9996)" fill="white"/>
<circle cx="59.5988" cy="14.7229" r="0.345146" transform="rotate(11.5907 59.5988 14.7229)" fill="white"/>
<g filter="url(#filter0_f_141_5)">
<path d="M40.01 5.14206C39.9039 5.86868 39.8399 6.64932 39.8099 7.40541C39.7786 8.19315 39.7839 8.96507 39.8188 9.63305C39.5811 8.71711 39.507 7.90317 39.5764 7.09993C39.6317 6.46024 39.7782 5.82304 40.01 5.14206ZM41.4975 15.0426C41.5177 15.494 41.4614 15.936 41.3402 16.4017C41.3844 15.9372 41.3922 15.4867 41.3581 15.0241C41.3169 14.4644 41.2146 13.8902 41.0437 13.2548C41.3322 13.9129 41.4727 14.4889 41.4975 15.0426Z" stroke="#726FFE" stroke-width="0.340588"/>
</g>
<g filter="url(#filter1_f_141_5)">
<path d="M49.4407 2.10055C49.9832 2.26984 50.5018 2.50234 51.0312 2.80897C50.4166 2.52966 49.8344 2.30425 49.2461 2.12186C48.839 1.99566 48.4298 1.89031 48.0058 1.80194C48.5167 1.86144 48.9881 1.95935 49.4407 2.10055ZM57.3542 5.89829C56.7158 5.72952 56.0957 5.50956 55.4578 5.21688C56.3728 5.56374 57.2092 5.8367 58.0546 6.0621C57.8174 6.01345 57.5845 5.95917 57.3542 5.89829Z" stroke="#726FFE" stroke-width="0.340588"/>
</g>
<g filter="url(#filter2_f_141_5)">
<path d="M63.4377 26.2218C64.4776 26.0585 65.5414 26.0666 66.761 26.2103C64.2232 26.2954 62.3548 26.6303 60.0696 27.3559C61.2734 26.7547 62.3458 26.3932 63.4377 26.2218ZM74.1622 26.3734C73.2915 26.5337 72.3905 26.5799 71.3764 26.5188C73.3372 26.4286 74.926 26.1309 76.7436 25.553C75.8556 25.9452 75.0215 26.2152 74.1622 26.3734Z" stroke="#726FFE" stroke-width="0.340588"/>
</g>
<g filter="url(#filter3_f_141_5)">
<path d="M69.4656 12.5559C69.7125 12.7717 69.9685 12.9742 70.2381 13.168C69.8734 12.952 69.5478 12.7202 69.2523 12.4642C68.8057 12.0772 68.4242 11.6319 68.0794 11.0961C68.5277 11.6537 68.9778 12.1296 69.4656 12.5559ZM75.0589 15.1707C75.9304 15.4567 76.6 15.8273 77.1493 16.3086C77.687 16.7796 78.1163 17.3626 78.5065 18.0917C78.0721 17.4996 77.6246 16.9804 77.1009 16.5151C76.5328 16.0104 75.8783 15.5719 75.0589 15.1707Z" stroke="#726FFE" stroke-width="0.340588"/>
</g>
<defs>
<filter id="filter0_f_141_5" x="39.2446" y="2.65136" width="2.56349" height="15.6567" filterUnits="userSpaceOnUse" color-interpolation-filters="sRGB">
<feFlood flood-opacity="0" result="BackgroundImageFix"/>
<feBlend mode="normal" in="SourceGraphic" in2="BackgroundImageFix" result="shape"/>
<feGaussianBlur stdDeviation="0.0681176" result="effect1_foregroundBlur_141_5"/>
</filter>
<filter id="filter1_f_141_5" x="45.0786" y="1.42382" width="17.165" height="5.37013" filterUnits="userSpaceOnUse" color-interpolation-filters="sRGB">
<feFlood flood-opacity="0" result="BackgroundImageFix"/>
<feBlend mode="normal" in="SourceGraphic" in2="BackgroundImageFix" result="shape"/>
<feGaussianBlur stdDeviation="0.0681176" result="effect1_foregroundBlur_141_5"/>
</filter>
<filter id="filter2_f_141_5" x="58.1919" y="24.4028" width="21.0147" height="3.86573" filterUnits="userSpaceOnUse" color-interpolation-filters="sRGB">
<feFlood flood-opacity="0" result="BackgroundImageFix"/>
<feBlend mode="normal" in="SourceGraphic" in2="BackgroundImageFix" result="shape"/>
<feGaussianBlur stdDeviation="0.0681176" result="effect1_foregroundBlur_141_5"/>
</filter>
<filter id="filter3_f_141_5" x="66.8247" y="9.09375" width="12.7881" height="10.8989" filterUnits="userSpaceOnUse" color-interpolation-filters="sRGB">
<feFlood flood-opacity="0" result="BackgroundImageFix"/>
<feBlend mode="normal" in="SourceGraphic" in2="BackgroundImageFix" result="shape"/>
<feGaussianBlur stdDeviation="0.0681176" result="effect1_foregroundBlur_141_5"/>
</filter>
</defs>
</svg>
