<svg width="38" height="38" viewBox="0 0 38 38" fill="none" xmlns="http://www.w3.org/2000/svg">
<path d="M30.8765 15.4352C30.8765 18.8414 29.7706 21.9878 27.9076 24.5405L37.3042 33.9427C38.2319 34.8703 38.2319 36.3767 37.3042 37.3043C36.3764 38.2319 34.8697 38.2319 33.9419 37.3043L24.5453 27.9022C21.9921 29.7722 18.8451 30.8705 15.4383 30.8705C6.9101 30.8705 0 23.9617 0 15.4352C0 6.90875 6.9101 0 15.4383 0C23.9664 0 30.8765 6.90875 30.8765 15.4352ZM15.4383 26.1212C16.8418 26.1212 18.2317 25.8448 19.5284 25.3078C20.8251 24.7707 22.0033 23.9836 22.9958 22.9913C23.9883 21.9991 24.7756 20.821 25.3127 19.5246C25.8498 18.2281 26.1263 16.8385 26.1263 15.4352C26.1263 14.0319 25.8498 12.6424 25.3127 11.3459C24.7756 10.0494 23.9883 8.87142 22.9958 7.87914C22.0033 6.88686 20.8251 6.09974 19.5284 5.56272C18.2317 5.0257 16.8418 4.7493 15.4383 4.7493C14.0347 4.7493 12.6449 5.0257 11.3481 5.56272C10.0514 6.09974 8.87315 6.88686 7.88068 7.87914C6.88821 8.87142 6.10093 10.0494 5.56381 11.3459C5.02669 12.6424 4.75023 14.0319 4.75023 15.4352C4.75023 16.8385 5.02669 18.2281 5.56381 19.5246C6.10093 20.821 6.88821 21.9991 7.88068 22.9913C8.87315 23.9836 10.0514 24.7707 11.3481 25.3078C12.6449 25.8448 14.0347 26.1212 15.4383 26.1212Z" fill="#726FFE"/>
</svg>
