<svg width="147" height="147" viewBox="0 0 147 147" fill="none" xmlns="http://www.w3.org/2000/svg">
<g filter="url(#filter0_d_145_16)">
<rect x="44.6994" y="67.5942" width="40.8617" height="40.8617" transform="rotate(-45 44.6994 67.5942)" stroke="white" stroke-width="3" shape-rendering="crispEdges"/>
</g>
<path d="M70.9179 61.395C70.4673 61.1312 69.901 61.1225 69.4413 61.369C68.9815 61.6154 68.6953 62.0792 68.6953 62.5837V72.7887C68.6953 73.2932 68.9815 73.7571 69.4413 74.0035C69.901 74.2499 70.4673 74.2383 70.9179 73.9774L79.6865 68.8749C80.1219 68.6226 80.3868 68.1733 80.3868 67.6862C80.3868 67.1992 80.1219 66.7527 79.6865 66.4976L70.9179 61.395Z" fill="white"/>
<g filter="url(#filter1_d_145_16)">
<rect x="27.1213" y="67.5" width="65.5894" height="65.5894" transform="rotate(-45 27.1213 67.5)" stroke="white" stroke-opacity="0.2" stroke-width="3" shape-rendering="crispEdges"/>
</g>
<defs>
<filter id="filter0_d_145_16" x="17.5781" y="17.5796" width="112.029" height="112.029" filterUnits="userSpaceOnUse" color-interpolation-filters="sRGB">
<feFlood flood-opacity="0" result="BackgroundImageFix"/>
<feColorMatrix in="SourceAlpha" type="matrix" values="0 0 0 0 0 0 0 0 0 0 0 0 0 0 0 0 0 0 127 0" result="hardAlpha"/>
<feOffset dy="6"/>
<feGaussianBlur stdDeviation="12.5"/>
<feComposite in2="hardAlpha" operator="out"/>
<feColorMatrix type="matrix" values="0 0 0 0 0.121569 0 0 0 0 0.172549 0 0 0 0 0.207843 0 0 0 0.1 0"/>
<feBlend mode="normal" in2="BackgroundImageFix" result="effect1_dropShadow_145_16"/>
<feBlend mode="normal" in="SourceGraphic" in2="effect1_dropShadow_145_16" result="shape"/>
</filter>
<filter id="filter1_d_145_16" x="0" y="0" width="147" height="147" filterUnits="userSpaceOnUse" color-interpolation-filters="sRGB">
<feFlood flood-opacity="0" result="BackgroundImageFix"/>
<feColorMatrix in="SourceAlpha" type="matrix" values="0 0 0 0 0 0 0 0 0 0 0 0 0 0 0 0 0 0 127 0" result="hardAlpha"/>
<feOffset dy="6"/>
<feGaussianBlur stdDeviation="12.5"/>
<feComposite in2="hardAlpha" operator="out"/>
<feColorMatrix type="matrix" values="0 0 0 0 0.121569 0 0 0 0 0.172549 0 0 0 0 0.207843 0 0 0 0.1 0"/>
<feBlend mode="normal" in2="BackgroundImageFix" result="effect1_dropShadow_145_16"/>
<feBlend mode="normal" in="SourceGraphic" in2="effect1_dropShadow_145_16" result="shape"/>
</filter>
</defs>
</svg>
